<svg xmlns="http://www.w3.org/2000/svg" width="590" height="236" viewBox="0 0 590 236" role="img" aria-label="contacts-manage: Contact manager with admin and user roles, login, registration and session-based authentication.">
  <style>
    .sans { font-family: 'Segoe UI', -apple-system, BlinkMacSystemFont, 'Helvetica Neue', Helvetica, Arial, sans-serif; }
    .mono { font-family: 'Cascadia Code', 'JetBrains Mono', 'SFMono-Regular', Consolas, 'Liberation Mono', Menlo, monospace; }
    .fade { opacity: 0; animation: fade .6s ease-out forwards; }
    @keyframes fade { from { opacity: 0; transform: translateY(6px); } to { opacity: 1; transform: none; } }
    
    
  @media (prefers-reduced-motion: reduce) {
    *, *::before, *::after { animation-duration: 0s !important; animation-delay: 0s !important; animation-iteration-count: 1 !important; }
  }
  </style>
  <rect x="1" y="1" width="588" height="234" rx="18" fill="#ffffff" stroke="#d0d7de" stroke-width="1.5"/>

  <g class="fade">
    <path transform="translate(40 30) scale(1.4)" d="M2 2.5A2.5 2.5 0 0 1 4.5 0h8.75a.75.75 0 0 1 .75.75v12.5a.75.75 0 0 1-.75.75h-2.5a.75.75 0 0 1 0-1.5h1.75v-2h-8a1 1 0 0 0-.714 1.7.75.75 0 1 1-1.072 1.05A2.495 2.495 0 0 1 2 11.5Zm10.5-1h-8a1 1 0 0 0-1 1v6.708A2.486 2.486 0 0 1 4.5 9h8ZM5 12.25a.25.25 0 0 1 .25-.25h3.5a.25.25 0 0 1 .25.25v3.25a.25.25 0 0 1-.4.2l-1.45-1.087a.249.249 0 0 0-.3 0L5.4 15.7a.25.25 0 0 1-.4-.2Z" fill="#59636e"/>
    <text x="72" y="50" class="mono" font-size="22" font-weight="700" fill="#0969da">contacts-manage</text>
  </g>
  <g class="fade" style="animation-delay:.1s">
    <text x="40" y="90" class="sans" font-size="17.5" fill="#1f2328">Contact manager with admin and user roles, login,</text>
    <text x="40" y="116" class="sans" font-size="17.5" fill="#1f2328">registration and session-based authentication.</text>
  </g>
  <g class="fade" style="animation-delay:.2s">
    <rect x="40" y="140" width="41.2" height="28" rx="14" fill="#f6f8fa" stroke="#d0d7de"/>
    <text x="60.6" y="159" text-anchor="middle" class="mono" font-size="13.5" fill="#6d28d9">C#</text>
    <rect x="89.2" y="140" width="84.19999999999999" height="28" rx="14" fill="#f6f8fa" stroke="#d0d7de"/>
    <text x="131.3" y="159" text-anchor="middle" class="mono" font-size="13.5" fill="#6d28d9">ASP.NET</text>
    <rect x="181.39999999999998" y="140" width="58.4" height="28" rx="14" fill="#f6f8fa" stroke="#d0d7de"/>
    <text x="210.59999999999997" y="159" text-anchor="middle" class="mono" font-size="13.5" fill="#6d28d9">Auth</text>
  </g>
  <g class="fade" style="animation-delay:.3s">
    <circle cx="47" cy="203" r="7" fill="#178600"/>
    <text x="62" y="209" class="sans" font-size="16" fill="#59636e">C#</text>
    <text x="106" y="209" class="sans" font-size="16" fill="#59636e">★ 4</text>
  </g>
</svg>
